PathFileType	4	(X/Y/Z)	c:/Users/goper/Files/vsCode/490R/osim_files/C07/C07_SSWS_04.trc
DataRate	CameraRate	NumFrames	NumMarkers	Units                	OrigDataRate	OrigDataStartFrame	OrigNumFrames
250.00	250.00	11	36	mm	250.0	789	3153
                Frame#	Time	LPSIS			LASIS			LTH1			LTH2			LTH3			LTH4			LLFE			LMFE			LSH1			LSH2			LSH3			LSH4			LLMAL			LMMAL			LCAL			LMTP5			LTOE			LMTP1			RPSIS			RASIS			RTH1			RTH2			RTH3			RTH4			RLFE			RMFE			RSH1			RSH2			RSH3			RSH4			RLMAL			RMMAL			RCAL			RMTP1			RTOE			RMTP5		
		X1	Y1	Z1	X2	Y2	Z2	X3	Y3	Z3	X4	Y4	Z4	X5	Y5	Z5	X6	Y6	Z6	X7	Y7	Z7	X8	Y8	Z8	X9	Y9	Z9	X10	Y10	Z10	X11	Y11	Z11	X12	Y12	Z12	X13	Y13	Z13	X14	Y14	Z14	X15	Y15	Z15	X16	Y16	Z16	X17	Y17	Z17	X18	Y18	Z18	X19	Y19	Z19	X20	Y20	Z20	X21	Y21	Z21	X22	Y22	Z22	X23	Y23	Z23	X24	Y24	Z24	X25	Y25	Z25	X26	Y26	Z26	X27	Y27	Z27	X28	Y28	Z28	X29	Y29	Z29	X30	Y30	Z30	X31	Y31	Z31	X32	Y32	Z32	X33	Y33	Z33	X34	Y34	Z34	X35	Y35	Z35	X36	Y36	Z36

789	3.15200	577.58539	1013.79633	325.03357	412.66107	997.71564	403.44708	0.00000	0.00000	0.00000	0.00000	0.00000	0.00000	322.64313	673.09033	460.11264	0.00000	0.00000	0.00000	293.33362	560.74323	438.63553	282.32700	549.16882	323.14114	395.82941	426.53595	450.90137	433.25729	397.68500	437.07620	359.17737	409.04294	441.06995	386.65634	372.63287	434.22342	535.90100	253.53133	398.23102	496.59445	250.57104	329.70102	614.06104	243.96584	345.97821	495.56339	110.90758	428.98312	442.19202	81.89500	377.84372	472.25934	90.99133	326.26242	571.32092	1026.07483	223.65071	407.08179	994.03644	148.16866	457.28336	840.75488	95.16570	453.01688	759.76489	100.36066	457.82568	678.37781	109.70461	385.62292	760.80627	134.01660	483.30554	503.57187	152.87260	485.82446	514.67987	263.20197	550.24524	322.81985	149.67998	522.18665	273.81387	149.19249	489.44336	323.72964	149.94414	492.11041	280.30707	154.88290	548.66101	102.59101	206.55984	519.01074	115.66177	281.08774	597.83618	51.77693	253.60710	388.76251	44.24330	282.43585	365.05939	55.84709	233.91182	411.37445	42.74744	173.96680
790	3.15600	573.81067	1013.92944	325.18555	408.38803	997.82178	403.27078	0.00000	0.00000	0.00000	0.00000	0.00000	0.00000	316.65137	674.33191	459.75546	0.00000	0.00000	0.00000	286.91940	561.82678	438.15201	276.96829	549.89636	322.82901	387.51294	425.32800	450.84045	424.48541	395.71323	437.29596	350.53342	408.66467	440.83502	377.41547	371.74039	433.82230	524.71710	249.88582	398.24283	485.55423	247.74776	329.67776	602.98792	238.31055	346.13315	480.87955	108.68307	429.24963	427.03650	80.88949	378.11188	455.60352	89.19780	325.12387	567.64728	1025.94202	223.91481	403.58575	993.75696	148.04271	455.34543	841.26294	94.39964	450.47690	759.61249	100.18558	455.28979	678.28882	109.77288	382.68774	760.41479	133.89317	481.15784	503.46045	153.21155	483.51849	514.74133	263.42902	548.70612	323.01181	149.98990	521.00372	273.86990	149.48463	487.96262	323.67642	150.27646	490.44135	280.18439	155.18080	548.47461	102.84987	206.76024	518.83508	115.68610	281.35715	597.79742	51.88984	253.66031	388.66772	44.21976	282.47266	364.88315	55.84362	233.93164	411.36349	42.75396	174.00241
791	3.16000	569.82660	1013.96112	325.53137	404.23816	998.06366	403.08182	0.00000	0.00000	0.00000	0.00000	0.00000	0.00000	310.86545	675.38135	459.40454	0.00000	0.00000	0.00000	280.70743	562.87109	437.69479	271.08719	550.71735	322.42154	379.21609	424.12268	450.65131	415.76535	393.88657	437.00018	342.13547	408.13293	440.52856	368.24808	370.80252	433.42178	513.62573	246.23155	398.13965	474.62939	244.85478	329.76620	591.77881	232.57581	346.22260	466.08069	106.35939	429.41742	411.71713	79.89375	378.28418	440.76077	87.14001	325.39145	564.01306	1025.85193	224.13937	400.10757	993.45801	147.91313	452.97952	841.50641	93.87964	447.90585	759.44232	100.02798	452.70499	678.11377	109.83586	379.94867	760.09406	133.74791	478.95822	503.34894	153.58302	481.44037	514.66711	263.83374	547.41229	323.36023	150.10698	519.74353	273.97943	149.71112	486.52490	323.63977	150.58725	489.44141	280.31143	155.51645	548.24182	103.09032	206.98907	518.66345	115.71580	281.60898	597.83203	52.08649	253.64824	388.55084	44.21105	282.48389	364.15302	55.84588	233.88934	411.35263	42.78337	174.03908
792	3.16400	565.96149	1013.99176	325.79010	400.35699	997.92578	403.03241	392.41748	804.02649	460.61276	0.00000	0.00000	0.00000	305.01855	676.37482	458.88184	0.00000	0.00000	0.00000	274.69919	563.79474	437.27237	265.66617	551.45465	322.09534	371.07532	422.86148	450.47284	407.19788	391.92838	436.85773	333.76376	407.51196	440.26669	359.14792	369.80737	433.04361	502.48236	242.57790	398.02332	465.61804	241.45428	330.99652	580.21039	226.71928	346.59644	451.35782	104.15231	429.70499	396.29715	78.99213	378.47983	425.65295	85.29011	325.64133	560.34192	1025.71375	224.39745	396.68213	993.15619	147.74911	450.23874	841.51825	93.57801	445.29849	759.25348	99.89176	450.03976	677.97180	109.98775	377.04681	759.73810	133.69911	476.81015	503.31219	153.94562	479.02103	514.77240	263.89362	546.15887	323.69189	150.23572	518.54803	273.99805	150.06239	485.09842	323.58224	150.90390	488.34238	280.35867	155.83839	548.02863	103.31457	207.15154	518.49426	115.74813	281.85126	597.86560	52.34901	253.61797	388.70123	43.97303	282.57187	364.03940	55.82627	233.82843	411.37537	42.80317	174.05061
793	3.16800	562.02753	1013.97491	326.06485	396.07358	998.16797	402.74625	0.00000	0.00000	0.00000	0.00000	0.00000	0.00000	299.35641	677.27966	458.33185	0.00000	0.00000	0.00000	268.67041	564.68939	436.81662	260.13422	552.11230	321.80109	362.99390	421.37253	450.34363	398.77246	389.91550	436.85995	325.48438	406.96045	440.00082	350.10870	368.74304	432.70944	491.16412	238.75923	397.90671	451.70917	239.13071	329.61093	568.84064	220.82114	346.63168	436.41003	101.88213	429.94122	380.87778	78.04948	378.64450	410.51801	83.31322	325.80716	556.67053	1025.62769	224.58836	393.31384	992.87177	147.54243	447.17581	841.33075	93.46700	442.64957	759.04480	99.78072	447.46399	677.83698	110.05775	374.12939	759.40582	133.68654	474.67511	503.17178	154.28270	476.77902	514.88391	264.17795	544.58246	323.78909	150.57664	517.43896	274.15924	150.33766	483.65161	323.45969	151.26172	487.22089	280.38486	156.14412	547.70227	103.59823	207.42557	518.32587	115.78035	282.09198	597.85492	52.58120	253.63441	388.66193	43.96582	282.64258	363.81628	55.82096	233.84579	411.34421	42.81148	174.10550
794	3.17200	558.16687	1013.90039	326.27411	391.95242	998.14392	402.57904	0.00000	0.00000	0.00000	0.00000	0.00000	0.00000	293.79095	678.23779	457.88278	273.71286	783.93652	440.92725	262.90308	565.24548	436.37064	254.55133	552.58636	321.46524	354.99954	419.96225	450.23334	390.25653	387.80237	436.76993	317.12671	406.16098	439.71631	341.12421	367.59775	432.44104	479.79214	234.81197	397.86438	440.44656	235.91977	329.55518	557.09851	214.73880	346.65262	421.55777	99.61790	430.07407	365.46158	77.15830	378.73639	395.37167	81.48630	325.98907	552.98938	1025.51025	224.79770	389.90625	992.62183	147.36124	443.84375	840.97668	93.51893	439.95386	758.81525	99.69872	444.81281	677.63251	110.24200	371.25302	759.00092	133.73456	472.63885	503.10580	154.53203	474.56647	514.91919	264.48679	543.08624	323.82663	150.89641	516.18927	274.12433	150.67165	482.19757	323.27255	151.66190	486.15018	280.30902	156.50198	547.49896	103.79926	207.68149	518.15668	115.80971	282.33914	597.76471	52.74268	253.74948	388.53500	43.97424	282.69470	363.88834	55.58400	233.95375	411.35037	42.82239	174.16264
795	3.17600	554.28241	1013.84930	326.49051	387.79343	998.27887	402.38718	0.00000	0.00000	0.00000	0.00000	0.00000	0.00000	288.40927	678.91846	457.59436	268.88223	787.23962	440.17310	257.17194	566.09961	435.94293	249.70886	552.82629	321.13361	347.08527	418.49127	450.07486	381.74115	385.56055	436.67844	308.97998	405.40128	439.47241	332.18811	366.35950	432.26007	468.23361	230.78535	397.87555	429.07764	232.82230	329.42535	545.28491	208.73320	346.77719	406.44745	97.45502	430.28699	350.08014	76.24831	378.89249	380.19238	79.59189	326.09311	549.28271	1025.32202	225.04103	386.41183	992.35449	147.24078	440.29544	840.48883	93.70606	437.20612	758.56360	99.64956	442.16083	677.39594	110.46622	368.24741	758.57220	133.83492	470.57108	503.00809	154.78989	472.22421	514.79657	264.73984	541.98615	324.23788	150.92320	515.13739	274.25806	150.96439	480.87299	323.15390	152.00351	485.00171	280.27112	156.78783	547.25293	104.00596	207.93283	517.98529	115.83346	282.60074	597.67841	52.93153	253.87296	388.44919	43.95243	282.76831	363.83481	55.53345	233.98517	411.31906	42.83817	174.19214
796	3.18000	550.42590	1013.70190	326.70966	383.73328	998.21271	402.30865	0.00000	0.00000	0.00000	0.00000	0.00000	0.00000	283.08157	679.72278	457.35962	264.08887	788.48511	439.24551	251.61920	566.64313	435.66162	244.27307	553.12811	320.77661	339.18216	416.81818	450.07800	373.25046	383.26196	436.58774	300.82465	404.64178	439.32114	323.29413	365.01648	432.18829	456.71600	226.74922	397.81506	417.49081	229.53558	329.37225	533.26349	202.65215	346.89621	391.60428	95.08501	430.38657	334.79739	75.34705	379.06891	365.03802	77.64153	326.30600	545.57831	1025.08032	225.31696	382.80273	992.00024	147.20253	436.58380	839.89954	94.00067	434.40259	758.28943	99.63596	439.40533	677.14215	110.75925	365.34930	758.17480	133.95331	468.40210	502.81247	155.14410	470.27963	514.83508	265.06317	540.56409	324.29440	151.23535	514.03802	274.36191	151.19136	479.63934	323.09698	152.28716	483.96213	280.18250	157.13573	547.05811	104.24197	208.11148	517.80981	115.84889	282.88477	597.63800	53.10041	253.96667	388.77707	43.64238	283.09958	363.81271	55.46782	233.99803	411.30035	42.85138	174.25591
797	3.18400	546.52155	1013.46051	327.00949	379.78638	998.11792	402.32895	367.63705	806.25226	460.46353	321.28729	742.15930	464.45297	277.84116	680.23492	457.02832	259.36603	788.36432	438.23660	246.37383	567.05865	435.39407	239.29193	553.31348	320.52386	331.46466	415.12177	450.01556	364.81708	380.89276	436.48450	292.85696	403.75183	439.18707	314.44052	363.56418	432.23590	445.14783	222.68709	397.75290	405.85339	226.35959	329.30048	521.21283	196.38007	346.96698	376.64191	92.93708	430.61749	319.00388	74.56733	379.18225	349.86853	75.85769	326.41632	541.84650	1024.81750	225.51239	379.09836	991.54041	147.23439	432.76172	839.24158	94.37505	431.54544	757.99420	99.65598	436.75793	676.92236	110.96408	362.40155	757.73993	134.19601	466.41241	502.77960	155.34476	468.12360	514.77319	265.23322	539.18396	324.40195	151.55083	512.91815	274.41653	151.47861	478.40344	323.04889	152.54729	482.90948	280.19772	157.36888	546.88214	104.46698	208.29849	517.62885	115.85323	283.19925	597.50287	53.21387	254.11380	388.67859	43.59074	283.18887	363.81317	55.40755	234.04164	411.27563	42.86827	174.32524
798	3.18800	542.65143	1013.21240	327.26508	375.71490	997.92102	402.24335	363.35651	806.16681	460.36011	316.63553	742.34119	464.30573	273.01910	680.70422	456.85562	254.74695	787.56842	437.23856	241.13519	567.38129	435.09537	234.35106	553.40912	320.26138	323.82690	413.36429	449.85086	356.29984	378.43658	436.26245	285.00311	402.70096	439.05322	305.64343	362.02747	432.36710	433.41974	218.52307	397.73282	394.17413	222.95193	329.26816	508.95667	190.34981	346.95074	361.73340	90.54845	430.78452	303.69995	73.70313	379.33432	334.50931	74.07825	326.60468	538.11810	1024.51550	225.70869	375.45547	991.11548	147.22609	428.88220	838.54773	94.80149	428.63828	757.67975	99.70654	434.22757	676.78918	111.06893	359.46661	757.30322	134.38368	464.38446	502.64359	155.64383	466.20682	514.55115	265.42542	538.08868	324.72806	151.60838	511.97040	274.49472	151.76366	477.07187	322.95670	152.81834	481.92731	280.16431	157.63542	546.68329	104.60009	208.53673	517.44080	115.84375	283.55219	597.42908	53.32005	254.27887	388.75772	43.52646	283.26691	363.82111	55.32939	234.06987	411.26529	42.88015	174.36888
799	3.19200	538.72382	1012.92572	327.58597	371.79147	997.80292	402.15460	358.93231	806.24243	460.39212	311.88062	742.65204	464.20352	268.01031	681.09546	456.63843	250.26491	786.78870	436.34357	236.08305	567.62079	434.87518	228.62332	553.70325	319.84644	316.10019	411.50317	449.88959	347.96625	375.76486	436.39969	277.11392	401.69403	438.88644	296.92358	360.43854	432.53455	421.61383	214.25258	397.70102	382.32822	219.68697	329.03241	496.49677	184.16487	346.92319	346.89062	88.20166	430.97324	288.36905	72.83930	379.58105	318.98099	72.48293	326.69211	534.25696	1024.11670	226.04118	371.87131	990.73279	147.17635	424.99808	837.85040	95.25227	425.68469	757.34808	99.78458	431.80347	676.71497	111.12333	356.51813	756.88281	134.61342	462.37891	502.44864	155.90572	464.16095	514.48950	265.66571	536.73071	324.82205	151.89926	510.93765	274.54031	151.97319	475.68365	322.81021	153.10495	480.87473	280.10394	157.90356	546.53802	104.78186	208.66556	517.24542	115.82204	283.89990	597.28577	53.36142	254.50980	388.59262	43.47048	283.38043	364.50793	55.28366	234.07655	411.25885	42.87832	174.41547
